<svg width="165" height="51" viewBox="0 0 165 51" fill="none" xmlns="http://www.w3.org/2000/svg">
<g clip-path="url(#clip0_2_1957)">
<mask id="mask0_2_1957" style="mask-type:luminance" maskUnits="userSpaceOnUse" x="-1" y="0" width="34" height="51">
<path d="M-0.200684 0.0063324H32.5183V51H-0.200684V0.0063324Z" fill="white"/>
</mask>
<g mask="url(#mask0_2_1957)">
<path d="M12.7433 2.56141L30.235 20.197C30.5894 20.5512 30.9031 20.9401 31.1791 21.3575C31.4551 21.7749 31.6903 22.2145 31.8785 22.6793C32.0698 23.141 32.2141 23.6185 32.3113 24.1118C32.4085 24.6051 32.4556 25.1016 32.4556 25.6044C32.4556 26.1072 32.4085 26.6036 32.3113 27.0969C32.2141 27.5871 32.0698 28.0677 31.8785 28.5294C31.6903 28.9943 31.4551 29.4338 31.1791 29.8512C30.9031 30.2686 30.5894 30.6544 30.235 31.0117L12.7433 48.6473C7.96652 53.4634 -0.206952 50.0514 -0.20068 43.2368V7.96245C-0.206952 1.15739 7.96652 -2.25779 12.7433 2.56141Z" fill="#72FFFF"/>
</g>
<mask id="mask1_2_1957" style="mask-type:luminance" maskUnits="userSpaceOnUse" x="-1" y="0" width="34" height="39">
<path d="M-0.200684 0.0063324H32.5183V38.8572H-0.200684V0.0063324Z" fill="white"/>
</mask>
<g mask="url(#mask1_2_1957)">
<path d="M12.7433 2.56139C7.99164 -2.22934 -0.0845992 1.11943 -0.19751 7.8486C-0.19751 7.8486 27.3276 34.1075 22.9523 38.386L30.2507 31.0275C30.6051 30.6702 30.9188 30.2844 31.1948 29.867C31.4708 29.4496 31.706 29.0101 31.8942 28.5452C32.0855 28.0835 32.2298 27.6029 32.327 27.1127C32.4242 26.6194 32.4713 26.123 32.4713 25.6202C32.4713 25.1174 32.4242 24.6209 32.327 24.1276C32.2298 23.6343 32.0855 23.1568 31.8942 22.6951C31.706 22.2303 31.4708 21.7907 31.1948 21.3733C30.9188 20.9559 30.6051 20.567 30.2507 20.2128L12.7433 2.56139Z" fill="#00D7FF"/>
</g>
<mask id="mask2_2_1957" style="mask-type:luminance" maskUnits="userSpaceOnUse" x="43" y="0" width="11" height="11">
<path d="M43.7592 0.0063324H53.9964V10.5238H43.7592V0.0063324Z" fill="white"/>
</mask>
<g mask="url(#mask2_2_1957)">
<path d="M54.2222 5.05953C54.2222 5.3884 54.1877 5.7141 54.1249 6.03665C54.0622 6.35919 53.9681 6.66909 53.8427 6.97266C53.7203 7.27623 53.5667 7.56399 53.3847 7.83594C53.206 8.11105 52.999 8.36403 52.77 8.59487C52.5379 8.82571 52.2901 9.03442 52.0173 9.21466C51.7475 9.39807 51.4621 9.55302 51.161 9.67634C50.8599 9.80283 50.5494 9.8977 50.2327 9.96094C49.9127 10.0273 49.5897 10.059 49.2635 10.059C48.9405 10.059 48.6174 10.0273 48.2975 9.96094C47.9776 9.8977 47.6671 9.80283 47.3691 9.67634C47.068 9.55302 46.7826 9.39807 46.5097 9.21466C46.24 9.03442 45.9891 8.82571 45.7601 8.59487C45.5312 8.36403 45.3242 8.11105 45.1423 7.83594C44.9635 7.56399 44.8098 7.27623 44.6844 6.97266C44.562 6.66909 44.4679 6.35919 44.4021 6.03665C44.3393 5.7141 44.308 5.3884 44.308 5.05953C44.308 4.73382 44.3393 4.40811 44.4021 4.08557C44.4679 3.76303 44.562 3.45313 44.6844 3.14956C44.8098 2.84599 44.9635 2.55823 45.1423 2.28628C45.3242 2.01116 45.5312 1.75819 45.7601 1.52735C45.9891 1.29651 46.24 1.0878 46.5097 0.907556C46.7826 0.724148 47.068 0.5692 47.3691 0.442712C47.6671 0.319386 47.9776 0.22452 48.2975 0.161276C48.6174 0.0948699 48.9405 0.0632477 49.2635 0.0632477C49.5897 0.0632477 49.9127 0.0948699 50.2327 0.161276C50.5494 0.22452 50.8599 0.319386 51.161 0.442712C51.4621 0.5692 51.7475 0.724148 52.0173 0.907556C52.2901 1.0878 52.5379 1.29651 52.77 1.52735C52.999 1.75819 53.206 2.01116 53.3847 2.28628C53.5667 2.55823 53.7203 2.84599 53.8427 3.14956C53.9681 3.45313 54.0622 3.76303 54.1249 4.08557C54.1877 4.40811 54.2222 4.73382 54.2222 5.05953Z" fill="#590696"/>
<path d="M54.2222 5.05953C54.2222 5.3884 54.1877 5.7141 54.1249 6.03665C54.0622 6.35919 53.9681 6.66909 53.8427 6.97266C53.7203 7.27623 53.5667 7.56399 53.3847 7.83594C53.206 8.11105 52.999 8.36403 52.77 8.59487C52.5379 8.82571 52.2901 9.03442 52.0173 9.21466C51.7475 9.39807 51.4621 9.55302 51.161 9.67634C50.8599 9.80283 50.5494 9.8977 50.2327 9.96094C49.9127 10.0273 49.5897 10.059 49.2635 10.059C48.9405 10.059 48.6174 10.0273 48.2975 9.96094C47.9776 9.8977 47.6671 9.80283 47.3691 9.67634C47.068 9.55302 46.7826 9.39807 46.5097 9.21466C46.24 9.03442 45.9891 8.82571 45.7601 8.59487C45.5312 8.36403 45.3242 8.11105 45.1423 7.83594C44.9635 7.56399 44.8098 7.27623 44.6844 6.97266C44.562 6.66909 44.4679 6.35919 44.4021 6.03665C44.3393 5.7141 44.308 5.3884 44.308 5.05953C44.308 4.73382 44.3393 4.40811 44.4021 4.08557C44.4679 3.76303 44.562 3.45313 44.6844 3.14956C44.8098 2.84599 44.9635 2.55823 45.1423 2.28628C45.3242 2.01116 45.5312 1.75819 45.7601 1.52735C45.9891 1.29651 46.24 1.0878 46.5097 0.907556C46.7826 0.724148 47.068 0.5692 47.3691 0.442712C47.6671 0.319386 47.9776 0.22452 48.2975 0.161276C48.6174 0.0948699 48.9405 0.0632477 49.2635 0.0632477C49.5897 0.0632477 49.9127 0.0948699 50.2327 0.161276C50.5494 0.22452 50.8599 0.319386 51.161 0.442712C51.4621 0.5692 51.7475 0.724148 52.0173 0.907556C52.2901 1.0878 52.5379 1.29651 52.77 1.52735C52.999 1.75819 53.206 2.01116 53.3847 2.28628C53.5667 2.55823 53.7203 2.84599 53.8427 3.14956C53.9681 3.45313 54.0622 3.76303 54.1249 4.08557C54.1877 4.40811 54.2222 4.73382 54.2222 5.05953Z" fill="#590696"/>
</g>
<mask id="mask3_2_1957" style="mask-type:luminance" maskUnits="userSpaceOnUse" x="20" y="0" width="34" height="51">
<path d="M20.4745 0.0063324H53.9964V51H20.4745V0.0063324Z" fill="white"/>
</mask>
<g mask="url(#mask3_2_1957)">
<path d="M51.9984 20.2413L34.5036 2.60249C29.8084 -2.13449 17.291 3.36142 21.5753 7.67782L34.1554 20.3646C34.5067 20.7219 34.8203 21.1077 35.0995 21.5251C35.3755 21.9425 35.6076 22.3821 35.7989 22.8437C35.9902 23.3086 36.1345 23.7861 36.2317 24.2794C36.329 24.7727 36.376 25.2692 36.376 25.7719C36.376 26.2716 36.329 26.7712 36.2317 27.2613C36.1345 27.7546 35.9902 28.2321 35.7989 28.697C35.6076 29.1587 35.3755 29.6014 35.0995 30.0188C34.8203 30.4362 34.5067 30.822 34.1554 31.1761L21.5816 43.8534C17.7489 47.7145 29.8554 53.4096 34.5036 48.7232L51.9984 31.0844C52.3529 30.7303 52.6696 30.3445 52.9456 29.9239C53.2248 29.5065 53.46 29.0638 53.6513 28.599C53.8458 28.1341 53.9901 27.6535 54.0873 27.1602C54.1845 26.6668 54.2347 26.1672 54.2347 25.6644C54.2347 25.1585 54.1845 24.6589 54.0873 24.1655C53.9901 23.6722 53.8458 23.1916 53.6513 22.7267C53.46 22.2619 53.2248 21.8192 52.9456 21.4018C52.6696 20.9812 52.3529 20.5954 51.9984 20.2413Z" fill="#0096FF"/>
</g>
<mask id="mask4_2_1957" style="mask-type:luminance" maskUnits="userSpaceOnUse" x="20" y="0" width="34" height="39">
<path d="M20.4745 0.0063324H53.9964V38.8572H20.4745V0.0063324Z" fill="white"/>
</mask>
<g mask="url(#mask4_2_1957)">
<path d="M51.9984 20.2413L34.5036 2.60249C29.8084 -2.13449 17.291 3.36142 21.5753 7.67782L34.1554 20.3646C34.7608 20.978 35.25 21.6737 35.6233 22.4516C35.9965 23.2327 36.2286 24.0517 36.3227 24.9118C40.6572 30.0441 44.2609 35.0245 45.0105 38.1298L52.0078 31.075C52.3623 30.7176 52.6759 30.3318 52.955 29.9113C53.231 29.4939 53.4663 29.0511 53.6576 28.5863C53.8489 28.1215 53.9932 27.644 54.0904 27.1507C54.1876 26.6574 54.2347 26.1577 54.2347 25.6549C54.2347 25.1522 54.1845 24.6525 54.0873 24.1592C53.9869 23.6659 53.8426 23.1884 53.6513 22.7236C53.46 22.2587 53.2248 21.816 52.9456 21.3986C52.6665 20.9812 52.3497 20.5954 51.9984 20.2413Z" fill="#5800FF"/>
</g>
<path d="M78.8556 41.9891C86.0631 41.9891 91.8404 36.2371 91.8404 28.9008C91.8404 21.5265 86.0631 15.8093 78.8556 15.8093C71.6513 15.8093 65.9086 21.5265 65.9086 28.9008C65.9086 36.2371 71.6513 41.9891 78.8556 41.9891ZM78.8556 37.1352C74.3267 37.1352 70.7951 33.72 70.7951 28.9008C70.7951 24.0468 74.3267 20.6285 78.8556 20.6285C83.3878 20.6285 86.9162 24.0468 86.9162 28.9008C86.9162 33.72 83.3878 37.1352 78.8556 37.1352Z" fill="white"/>
<path d="M108.99 41.4864H114.307L108.777 31.9934C111.631 30.6621 113.591 27.8225 113.591 24.6571C113.591 20.0529 109.881 16.3121 105.28 16.3121H95.2937V41.4864H100.218V32.7492H103.963L108.99 41.4864ZM100.218 20.951H105.28C107.137 20.951 108.67 22.5701 108.67 24.6571C108.67 26.741 107.137 28.398 105.28 28.398H100.218V20.951Z" fill="white"/>
<path d="M117.189 16.3121V41.4864H122.114V16.3121H117.189Z" fill="white"/>
<path d="M131.671 36.7399V31.0922H141.121V26.4185H131.671V21.0617H142.011V16.3121H126.747V41.4864H142.19V36.7399H131.671Z" fill="white"/>
<path d="M160.093 16.3121V31.6677L149.392 16.3121H145.647V41.4864H150.571V26.0959L161.269 41.4864H165.014V16.3121H160.093Z" fill="white"/>
</g>
<defs>
<clipPath id="clip0_2_1957">
<rect width="165" height="51" fill="white"/>
</clipPath>
</defs>
</svg>
